<svg width="240" height="240" viewBox="0 0 240 240" fill="none" xmlns="http://www.w3.org/2000/svg">
<g clip-path="url(#clip0)">
<g filter="url(#filter0_d)">
<path d="M182.74 233H57.0756V215.79L91.7927 210.449C94.2655 210.053 96.1447 209.113 97.4305 207.63C98.8153 206.146 99.5076 204.168 99.5076 201.695V19.9498H83.6327C77.9949 19.9498 72.7033 20.2466 67.7578 20.84C62.9113 21.4335 59.2022 22.2247 56.6305 23.2138C54.4545 24.0051 52.7236 25.0931 51.4378 26.4778C50.2509 27.7636 49.4102 29.4946 48.9156 31.6705L38.2335 76.7731H17.3142C16.1273 63.2226 15.5833 50.5127 15.6822 38.6436C15.7811 26.6756 16.5229 14.2131 17.9076 1.25602H222.204C223.49 14.2131 224.133 26.7251 224.133 38.792C224.133 50.8589 223.49 63.5193 222.204 76.7731H201.285L190.455 31.5222C189.96 29.3462 189.119 27.6153 187.932 26.3295C186.745 25.0436 185.113 24.0051 183.036 23.2138C180.267 22.1258 176.558 21.3346 171.909 20.84C167.359 20.2466 162.117 19.9498 156.183 19.9498H140.308V201.695C140.308 204.168 140.951 206.146 142.236 207.63C143.621 209.113 145.55 210.053 148.023 210.449L182.74 215.79V233Z" fill="#828282"/>
<path d="M91.9448 211.437L91.9507 211.436C94.5831 211.015 96.6967 209.996 98.1744 208.298C99.7592 206.593 100.508 204.356 100.508 201.695V19.9498V18.9498H99.5076H83.6327C77.9602 18.9498 72.6284 19.2484 67.6387 19.8471L67.6363 19.8474C62.7658 20.4438 58.9648 21.246 56.2802 22.2772C53.9921 23.1104 52.1186 24.275 50.705 25.7974L50.703 25.7996C49.3699 27.2438 48.4645 29.1459 47.9415 31.4444C47.9412 31.4459 47.9408 31.4474 47.9405 31.4489L37.4426 75.7731H18.2313C17.1017 62.5918 16.5858 50.2184 16.6821 38.652L16.6821 38.6519C16.7785 26.9946 17.4866 14.8628 18.8074 2.25602H221.298C222.522 14.8618 223.133 27.0404 223.133 38.792C223.133 50.5493 222.521 62.8762 221.296 75.7731H202.074L191.43 31.3006C191.429 31.2985 191.429 31.2964 191.428 31.2943C190.905 28.9966 190 27.095 188.667 25.6512C187.352 24.2265 185.579 23.1128 183.397 22.2812C180.514 21.1493 176.712 20.346 172.027 19.8469C167.426 19.2475 162.143 18.9498 156.183 18.9498H140.308H139.308V19.9498V201.695C139.308 204.344 140 206.576 141.481 208.285L141.493 208.299L141.505 208.312C143.075 209.993 145.225 211.014 147.865 211.436L147.87 211.437L181.74 216.648V232H58.0756V216.648L91.9448 211.437Z" stroke="black" stroke-width="2"/>
</g>
</g>
<defs>
<filter id="filter0_d" x="11.6708" y="1.25602" width="216.462" height="239.744" filterUnits="userSpaceOnUse" color-interpolation-filters="sRGB">
<feFlood flood-opacity="0" result="BackgroundImageFix"/>
<feColorMatrix in="SourceAlpha" type="matrix" values="0 0 0 0 0 0 0 0 0 0 0 0 0 0 0 0 0 0 127 0"/>
<feOffset dy="4"/>
<feGaussianBlur stdDeviation="2"/>
<feColorMatrix type="matrix" values="0 0 0 0 0 0 0 0 0 0 0 0 0 0 0 0 0 0 0.4 0"/>
<feBlend mode="normal" in2="BackgroundImageFix" result="effect1_dropShadow"/>
<feBlend mode="normal" in="SourceGraphic" in2="effect1_dropShadow" result="shape"/>
</filter>
<clipPath id="clip0">
<rect width="240" height="240" fill="white"/>
</clipPath>
</defs>
</svg>
